<?xml version="1.0" encoding="UTF-8"?>
<svg id="Layer_1" xmlns="http://www.w3.org/2000/svg" version="1.1" viewBox="0 0 540 216">
  <!-- Generator: Adobe Illustrator 30.2.1, SVG Export Plug-In . SVG Version: 2.1.1 Build 1)  -->
  <defs>
    <style>
      .st0 {
        fill: #231f20;
      }

      .st1 {
        fill: #e1251b;
      }

      .st2 {
        fill: #58595b;
      }

      .st3 {
        fill: #e32726;
      }
    </style>
  </defs>
  <path class="st2" d="M234.14,141.97h1.83l6.95,16.36h-2.26l-1.66-4.02h-8.18l-1.69,4.02h-2.19l7.21-16.36ZM235.02,144.46h-.05l-3.4,8.04h6.68l-3.23-8.04Z"/>
  <g>
    <path class="st2" d="M252.53,141.97h5.41c5.27,0,9.68,2.24,9.68,8.22,0,5.29-4.32,8.13-9.19,8.13h-5.89v-16.36ZM256.13,155h1.87c3.35,0,5.87-1.27,5.87-4.99,0-3.21-2.56-4.71-5.61-4.71h-2.13v9.7Z"/>
    <path class="st2" d="M285.24,152.02c0,3.86-2.36,6.72-6.88,6.72s-6.91-2.87-6.91-6.72v-10.05h3.6v9.91c0,2.01,1.39,3.53,3.3,3.53s3.28-1.52,3.28-3.53v-9.91h3.6v10.05Z"/>
    <path class="st2" d="M289.96,141.97h6.33c3.35,0,6.17,1.16,6.17,4.97,0,2.29-1.22,4.07-3.53,4.48l4.16,6.91h-4.32l-3.42-6.54h-1.78v6.54h-3.6v-16.36ZM293.56,148.74h2.13c1.32,0,3.03-.05,3.03-1.83,0-1.64-1.48-1.89-2.79-1.89h-2.36v3.72Z"/>
    <path class="st2" d="M311.67,141.97h2.98l7.12,16.36h-4.07l-1.41-3.46h-6.35l-1.36,3.46h-3.97l7.07-16.36ZM313.06,146.73l-1.99,5.08h4l-2.01-5.08Z"/>
    <path class="st2" d="M321.77,141.97h4.11l4.04,10.72h.05l4.11-10.72h3.86l-6.75,16.36h-2.89l-6.54-16.36Z"/>
    <path class="st2" d="M345.01,141.97h2.98l7.12,16.36h-4.07l-1.41-3.46h-6.35l-1.36,3.46h-3.97l7.07-16.36ZM346.4,146.73l-1.99,5.08h4l-2.01-5.08Z"/>
    <path class="st2" d="M358.11,141.97h4.9l6.95,11.37h.05v-11.37h3.6v16.36h-4.71l-7.14-11.64h-.05v11.64h-3.6v-16.36Z"/>
    <path class="st2" d="M381.49,145.16h-4.67v-3.19h12.94v3.19h-4.67v13.17h-3.6v-13.17Z"/>
  </g>
  <g>
    <path class="st2" d="M411.24,145.34c-.97-1.32-2.52-1.99-4.09-1.99-3.65,0-6.24,3.21-6.24,6.79,0,3.79,2.56,6.79,6.24,6.79,1.99,0,3.58-.81,4.74-2.29l1.45,1.22c-1.45,1.96-3.58,2.87-6.19,2.87-4.69,0-8.32-3.63-8.32-8.59s3.46-8.59,8.32-8.59c2.22,0,4.39.76,5.78,2.56l-1.69,1.22Z"/>
    <path class="st2" d="M416.46,150.15c0-4.94,3.58-8.59,8.55-8.59s8.55,3.65,8.55,8.59-3.58,8.59-8.55,8.59-8.55-3.65-8.55-8.59ZM431.48,150.15c0-3.77-2.63-6.79-6.47-6.79s-6.47,3.03-6.47,6.79,2.63,6.79,6.47,6.79,6.47-3.03,6.47-6.79Z"/>
    <path class="st2" d="M438.04,141.97h2.89l5.54,12.82h.05l5.59-12.82h2.82v16.36h-1.94v-13.72h-.05l-5.87,13.72h-1.18l-5.87-13.72h-.05v13.72h-1.94v-16.36Z"/>
    <path class="st2" d="M460.36,141.97h4.85c3,0,5.73,1.06,5.73,4.48s-3.05,4.53-5.36,4.53h-3.28v7.35h-1.94v-16.36ZM462.3,149.17h3.28c1.94,0,3.28-.88,3.28-2.7s-1.34-2.7-3.28-2.7h-3.28v5.41Z"/>
    <path class="st2" d="M479.07,141.97h1.83l6.95,16.36h-2.26l-1.66-4.02h-8.18l-1.69,4.02h-2.19l7.21-16.36ZM479.95,144.46h-.05l-3.4,8.04h6.68l-3.23-8.04Z"/>
    <path class="st2" d="M491.39,141.97h2.45l9.47,13.58h.05v-13.58h1.94v16.36h-2.45l-9.47-13.58h-.05v13.58h-1.94v-16.36Z"/>
    <path class="st2" d="M514.6,151.28l-6.1-9.31h2.47l4.6,7.39,4.74-7.39h2.33l-6.1,9.31v7.05h-1.94v-7.05Z"/>
  </g>
  <rect class="st0" x="157.38" y="127.69" width="365.26" height="1"/>
  <polygon class="st3" points="205.42 57.1 284.47 57.1 284.46 65.38 259.97 65.38 259.95 105.86 229.14 105.86 229.16 65.38 205.41 65.38 205.42 57.1"/>
  <polygon class="st3" points="436.91 57.1 467.39 57.1 467.38 75.8 492.15 75.8 492.15 57.1 522.64 57.1 522.64 105.86 492.15 105.86 492.14 84.07 467.38 84.07 467.38 105.86 436.91 105.86 436.91 57.1"/>
  <g>
    <path d="M389.6,105.86h19.58s-19.6,0-19.6,0c0,0,.01,0,.02,0Z"/>
    <path d="M389.36,105.86h.22c-.08,0-.16-.01-.23-.01h.01Z"/>
    <path class="st3" d="M389.2,57.1l-.02.02c.14,0,.28-.02.42-.02h-.4Z"/>
  </g>
  <path class="st3" d="M394.45,97.59c-6.87,0-7.17-6.38-7.17-13.34v-5.53c0-6.96.34-13.34,7.17-13.34.37,0,32.82,0,32.82,0v-8.27h-47.77c-10.96,0-19.77,9.23-19.77,20.19v8.38c0,11.02,8.94,20.19,19.94,20.19.08,0,47.6,0,47.6,0v-8.27s-32.44,0-32.81,0Z"/>
  <path class="st3" d="M182.76,57.1h-50.69c-10.91,0-19.77,9.23-19.77,20.19v8.38c0,11.02,8.94,20.19,19.94,20.19h50.36c10.97,0,19.94-9.17,19.94-20.19v-8.38c0-10.96-8.88-20.19-19.77-20.19ZM147.02,97.59c-6.85,0-7.17-6.38-7.17-13.34v-5.53c0-6.96.38-13.34,7.17-13.34h20.78c6.79,0,7.17,6.38,7.17,13.34v5.53c0,6.96-.31,13.34-7.17,13.34h-20.78Z"/>
  <polygon class="st3" points="52.68 57.1 16.93 57.1 61.37 105.86 68.61 105.86 80.89 92.39 52.68 57.1"/>
  <line class="st1" x1="52.68" y1="57.1" x2="52.68" y2="57.1"/>
  <path class="st3" d="M322.07,97.59c-6.89,0-7.12-6.56-7.12-13.52h30.19s0-8.27,0-8.27h-30.19c.2-5.58,1.27-10.42,7.12-10.42.37,0,32.82,0,32.82,0v-8.27s-47.63,0-47.77,0c-10.89,0-19.77,9.23-19.77,20.19v8.38c0,11.02,8.94,20.19,19.94,20.19.08,0,47.6,0,47.6,0v-8.27s-32.44,0-32.81,0Z"/>
  <polygon class="st2" points="113.06 57.1 99.44 57.1 80.18 78.22 86.54 86.19 113.06 57.1"/>
</svg>